<?xml version="1.0" encoding="utf-8"?>
<!-- Generator: Adobe Illustrator 23.0.5, SVG Export Plug-In . SVG Version: 6.00 Build 0)  -->
<svg version="1.1" id="Layer_1" xmlns="http://www.w3.org/2000/svg" xmlns:xlink="http://www.w3.org/1999/xlink" x="0px" y="0px"
	 viewBox="0 0 25 25" style="enable-background:new 0 0 25 25;" xml:space="preserve">
<style type="text/css">
	.st0{fill:#010101;}
</style>
<g>
	<g>
		<path class="st0" d="M18.7,18.2c2-1.7,3.1-4.2,3-6.8V9.8c0-0.5-0.3-0.8-0.8-0.8h-0.8c0.2-2.3-0.8-4.3-2.9-5.5
			c-0.3-0.2-0.8-0.1-1.1,0.2l-3,5.2H5.5V4.1c0-0.5-0.3-0.8-0.8-0.8H2.2v1.6h1.6v6.5c0,2.6,1.1,5.1,3.1,6.8c-1.2,0.6-1.8,2-1.2,3.3
			c0.6,1.2,2,1.8,3.3,1.2c0.8-0.4,1.4-1.3,1.4-2.3c0-0.1,0-0.2,0-0.3c1.6,0.5,3.4,0.5,5,0c0,0.1-0.1,0.2-0.1,0.3
			c0,1.4,1.1,2.5,2.5,2.5c1.4,0,2.5-1.1,2.5-2.5C20.2,19.5,19.6,18.6,18.7,18.2z M17.1,5.3c1.1,0.9,1.6,2.4,1.3,3.8H15L17.1,5.3z
			 M7.9,21.3c-0.5,0-0.8-0.3-0.8-0.8s0.3-0.8,0.8-0.8s0.8,0.3,0.8,0.8C8.7,20.9,8.4,21.3,7.9,21.3z M12.8,18.8
			c-4.1,0-7.4-3.3-7.4-7.4v-0.8h14.7v0.8C20.2,15.5,16.9,18.8,12.8,18.8z M17.7,21.3c-0.5,0-0.8-0.3-0.8-0.8s0.3-0.8,0.8-0.8
			s0.8,0.3,0.8,0.8C18.5,20.9,18.2,21.3,17.7,21.3z"/>
	</g>
</g>
</svg>
