<?xml version="1.0" encoding="utf-8"?>
<!-- Generator: Adobe Illustrator 23.0.5, SVG Export Plug-In . SVG Version: 6.00 Build 0)  -->
<svg version="1.1" id="Layer_1" xmlns="http://www.w3.org/2000/svg" xmlns:xlink="http://www.w3.org/1999/xlink" x="0px" y="0px"
	 viewBox="0 0 25 25" style="enable-background:new 0 0 25 25;" xml:space="preserve">
<style type="text/css">
	.st0{fill:#020202;}
</style>
<g>
	<polygon class="st0" points="19.6,3.9 22.4,11.7 22.4,21.1 19.8,21.1 19.8,18.1 19.8,16.4 20.7,16.4 20.7,11.7 18.1,5.6 18.1,3.9 	
		"/>
	<polygon class="st0" points="5.4,3.9 2.6,11.7 2.6,21.1 5.2,21.1 5.2,18.1 5.2,16.4 4.3,16.4 4.3,11.7 6.9,5.6 6.9,3.9 	"/>
	<rect x="5.7" y="3.9" class="st0" width="13.5" height="1.7"/>
	<rect x="5.2" y="16.4" class="st0" width="14.7" height="1.7"/>
	<polygon class="st0" points="17.2,6.9 16.8,7.8 17.6,10 17.6,10.8 18.5,10.8 18.5,9.9 17.7,7.5 	"/>
	<polygon class="st0" points="7.9,6.9 8.2,7.8 7.4,10 7.4,10.8 6.5,10.8 6.5,9.9 7.4,7.5 	"/>
	<rect x="7.7" y="6.9" class="st0" width="9.6" height="0.9"/>
	<rect x="7.4" y="10" class="st0" width="10.2" height="0.8"/>
	<circle class="st0" cx="6.9" cy="13.4" r="1.3"/>
	<circle class="st0" cx="18.1" cy="13.4" r="1.3"/>
</g>
</svg>
