<?xml version="1.0" encoding="utf-8"?>
<!-- Generator: Adobe Illustrator 23.0.5, SVG Export Plug-In . SVG Version: 6.00 Build 0)  -->
<svg version="1.1" id="Layer_1" xmlns="http://www.w3.org/2000/svg" xmlns:xlink="http://www.w3.org/1999/xlink" x="0px" y="0px"
	 viewBox="0 0 25 25" style="enable-background:new 0 0 25 25;" xml:space="preserve">
<style type="text/css">
	.st0{fill:#FFFFFF;}
</style>
<g>
	<rect x="5.1" y="5.4" width="4.4" height="0.8"/>
	<polygon points="12.2,4.4 15.6,4.4 18.2,10.3 17.4,10.5 15.2,5.4 12.2,5.4 	"/>
	<polygon points="8.4,6.2 12.9,13.4 12.2,13.6 7.5,6.2 	"/>
	<polygon points="9.4,7.8 16.2,7.8 16.4,8.3 9.4,8.3 	"/>
	<polygon points="16.4,7.7 12.5,12.6 12.9,13.4 16.6,8.7 	"/>
	<polygon points="8.7,8 7.5,10.4 8.3,10.9 9.2,8.8 	"/>
	<circle cx="6.2" cy="14.4" r="4.2"/>
	<circle cx="19.1" cy="14.4" r="4.2"/>
	<circle class="st0" cx="6.2" cy="14.4" r="2.2"/>
	<polygon points="10.1,12.9 11.8,12.9 12.2,13.6 10.1,13.6 	"/>
	<circle class="st0" cx="19.1" cy="14.4" r="2.2"/>
</g>
</svg>
