<?xml version="1.0" encoding="utf-8"?>
<!-- Generator: Adobe Illustrator 23.0.5, SVG Export Plug-In . SVG Version: 6.00 Build 0)  -->
<svg version="1.1" id="Capa_1" xmlns="http://www.w3.org/2000/svg" xmlns:xlink="http://www.w3.org/1999/xlink" x="0px" y="0px"
	 viewBox="0 0 8 5" style="enable-background:new 0 0 8 5;" xml:space="preserve">
<g>
	<path d="M7.7,0.9L7.3,0.5c0,0-0.1-0.1-0.2-0.1C7,0.4,7,0.4,6.9,0.5L4,3.4L1.1,0.5c0,0-0.1-0.1-0.2-0.1c-0.1,0-0.1,0-0.2,0.1
		L0.3,0.9c0,0-0.1,0.1-0.1,0.2c0,0.1,0,0.1,0.1,0.2l3.5,3.5c0,0,0.1,0.1,0.2,0.1c0.1,0,0.1,0,0.2-0.1l3.5-3.5c0,0,0.1-0.1,0.1-0.2
		C7.7,1,7.7,0.9,7.7,0.9z"/>
</g>
</svg>
