<?xml version="1.0" encoding="utf-8"?>
<!-- Generator: Adobe Illustrator 23.0.5, SVG Export Plug-In . SVG Version: 6.00 Build 0)  -->
<svg version="1.1" id="Layer_1" xmlns="http://www.w3.org/2000/svg" xmlns:xlink="http://www.w3.org/1999/xlink" x="0px" y="0px"
	 viewBox="0 0 25 25" style="enable-background:new 0 0 25 25;" xml:space="preserve">
<style type="text/css">
	.st0{fill:#010101;stroke:#000000;stroke-width:0.25;stroke-miterlimit:10;}
</style>
<g>
	<g>
		<g>
			<path class="st0" d="M22.2,9.1C22.1,9,22,9,21.8,9l-4.4,2.5V9.5c0-0.2-0.1-0.3-0.2-0.4C17.1,9,17,9,16.9,9l-4.4,2.5V9.5
				c0-0.2-0.1-0.3-0.2-0.4C12.2,9,12,9,11.9,9l-3.5,2L7.5,3.7c0-0.2-0.2-0.4-0.4-0.4H4.6c-0.2,0-0.4,0.2-0.4,0.4L2.8,16.1
				c-0.1,1.3-0.2,2.6-0.2,3.9c0,0.3,0.2,0.5,0.4,0.5h5.8H22c0.2,0,0.4-0.2,0.4-0.5V9.5C22.4,9.3,22.4,9.2,22.2,9.1z M3.4,19.5
				c0-1.1,0.1-2.2,0.2-3.3L5,4.2h1.8l1.4,12c0.1,1.1,0.2,2.2,0.2,3.3L3.4,19.5L3.4,19.5z M8.8,14.7H10v1H8.9L8.8,14.7z M21.6,19.5
				H9.2c0-1-0.1-1.9-0.2-2.9h1.4c0.2,0,0.4-0.2,0.4-0.5v-1.9c0-0.3-0.2-0.5-0.4-0.5H8.7l-0.2-1.7l3.2-1.8v2.1c0,0.2,0.1,0.3,0.2,0.4
				c0.1,0.1,0.3,0.1,0.4,0l4.4-2.5v2.1c0,0.2,0.1,0.3,0.2,0.4c0.1,0.1,0.3,0.1,0.4,0l4.4-2.5L21.6,19.5L21.6,19.5z"/>
			<path class="st0" d="M15.4,13.8h-2.5c-0.2,0-0.4,0.2-0.4,0.5v1.9c0,0.3,0.2,0.5,0.4,0.5h2.5c0.2,0,0.4-0.2,0.4-0.5v-1.9
				C15.8,14,15.6,13.8,15.4,13.8z M15,15.7h-1.7v-1H15V15.7z"/>
			<path class="st0" d="M17.9,16.6h2.5c0.2,0,0.4-0.2,0.4-0.5v-1.9c0-0.3-0.2-0.5-0.4-0.5h-2.5c-0.2,0-0.4,0.2-0.4,0.5v1.9
				C17.5,16.4,17.6,16.6,17.9,16.6z M18.3,14.7h1.7v1h-1.7V14.7z"/>
		</g>
	</g>
</g>
</svg>
