<?xml version="1.0" encoding="utf-8"?>
<!-- Generator: Adobe Illustrator 23.0.5, SVG Export Plug-In . SVG Version: 6.00 Build 0)  -->
<svg version="1.1" id="Layer_1" xmlns="http://www.w3.org/2000/svg" xmlns:xlink="http://www.w3.org/1999/xlink" x="0px" y="0px"
	 viewBox="0 0 25 25" style="enable-background:new 0 0 25 25;" xml:space="preserve">
<style type="text/css">
	.st0{fill:#010101;}
	.st1{fill:#FFFFFF;}
</style>
<g>
	<g>
		<polygon class="st0" points="7,2.8 18,2.8 19,3.8 19,12.7 6,12.7 6,3.8 		"/>
		<polygon class="st0" points="19,8.4 22.4,8.4 23.3,9.4 23.3,16.9 22.4,17.8 20,17.8 11.9,17.8 11.9,15.5 21.4,15.5 21.4,10.3 
			19,10.3 		"/>
		<polygon class="st0" points="6,8.4 2.6,8.4 1.7,9.4 1.7,16.9 2.6,17.8 5,17.8 13.1,17.8 13.1,15.5 3.6,15.5 3.6,10.3 6,10.3 		"/>
		<rect x="4.1" y="17.8" class="st0" width="1.9" height="2.4"/>
		<rect x="18.2" y="17.8" class="st0" width="1.9" height="2.4"/>
	</g>
	<rect x="7.8" y="5.1" class="st1" width="9.4" height="5.7"/>
</g>
</svg>
