<?xml version="1.0" encoding="utf-8"?>
<!-- Generator: Adobe Illustrator 23.0.5, SVG Export Plug-In . SVG Version: 6.00 Build 0)  -->
<svg version="1.1" id="Layer_1" xmlns="http://www.w3.org/2000/svg" xmlns:xlink="http://www.w3.org/1999/xlink" x="0px" y="0px"
	 viewBox="0 0 25 25" style="enable-background:new 0 0 25 25;" xml:space="preserve">
<style type="text/css">
	.st0{fill:#060507;}
</style>
<g>
	<path class="st0" d="M9.8,18.3c0.1,0.1,0.1,0.2,0,0.3l-0.5,0.5c-0.1,0.1-0.2,0.1-0.3,0l-3.1-3.1c-0.1-0.1-0.1-0.2,0-0.3l0.5-0.5
		c0.1-0.1,0.2-0.1,0.3,0L9.8,18.3z M22.8,4.1L22.8,4.1c0,0.2-0.1,0.4-0.2,0.6L22.2,5l0.1,0.1c0.2,0.2,0.2,0.4,0,0.6
		c-0.1,0.1-0.2,0.1-0.3,0.1c-0.1,0-0.2,0-0.3-0.1l-0.1-0.1l-0.2,0.2l0.1,0.1c0.2,0.2,0.2,0.4,0,0.6c-0.1,0.1-0.2,0.1-0.3,0.1
		c-0.1,0-0.2,0-0.3-0.1l-0.1-0.1l-0.2,0.2c-0.2,0.2-0.5,0.3-0.8,0.2l-3.5,3.5c0.9,1,2,2.9,0.9,4.6c-0.8,1.2-2.1,0.9-2.8,1.7
		c-0.8,0.8-0.2,3.1-2.2,5.2c-0.8,0.8-1.7,1.1-2.6,1.1c-1.6,0-3.3-1-4.9-2.6c-2.6-2.5-3.6-5.4-1.5-7.5c2.1-2.1,4.4-1.4,5.2-2.2
		C9.3,9.7,9,8.5,10.2,7.7c0.5-0.4,1.1-0.5,1.6-0.5c1.2,0,2.3,0.7,3,1.4l3.5-3.5c-0.1-0.3,0-0.6,0.2-0.8l0.2-0.2L18.5,4
		c-0.2-0.2-0.2-0.4,0-0.6c0.2-0.2,0.4-0.2,0.6,0l0.1,0.1l0.2-0.2l-0.1-0.1c-0.2-0.2-0.2-0.4,0-0.6c0.2-0.2,0.4-0.2,0.6,0L20,2.8
		l0.3-0.3c0.2-0.2,0.4-0.2,0.6-0.2h0c0.2,0,0.4,0.1,0.6,0.2l1.1,1.1C22.7,3.7,22.8,3.9,22.8,4.1z M15.7,11L13,13.7
		c0,0.1,0,0.1,0,0.2c0,1-0.8,1.9-1.9,1.9s-1.9-0.8-1.9-1.9s0.8-1.9,1.9-1.9c0.1,0,0.1,0,0.2,0L14,9.3c-0.6-0.5-1.4-1-2.2-1
		c-0.3,0-0.7,0.1-1,0.3c-0.4,0.2-0.5,0.5-0.7,1.1c-0.2,0.5-0.4,1.1-0.9,1.5C8.7,11.8,8,11.9,7.2,12c-1,0.2-2.1,0.4-3.1,1.4
		c-0.6,0.6-0.8,1.2-0.8,1.9c0,1.2,0.8,2.6,2.3,4c0,0,0,0,0,0c1.4,1.5,2.9,2.3,4.1,2.3c0.7,0,1.3-0.3,1.8-0.8c1-1,1.2-2.1,1.4-3.1
		c0.1-0.8,0.3-1.5,0.8-2.1c0.5-0.5,1.1-0.7,1.6-0.9c0.5-0.2,0.8-0.3,1.1-0.7C17.2,13.1,16.4,11.8,15.7,11z M19.4,5.1L21,3.5
		c0.1-0.1,0.1-0.2,0-0.3c-0.1-0.1-0.2-0.1-0.3,0l-1.6,1.6C19,4.9,19,5,19.1,5.1c0,0,0.1,0.1,0.2,0.1C19.3,5.2,19.4,5.2,19.4,5.1z
		 M21.8,4c-0.1-0.1-0.2-0.1-0.3,0l-1.6,1.6c-0.1,0.1-0.1,0.2,0,0.3C19.9,6,20,6,20,6c0.1,0,0.1,0,0.2-0.1l1.6-1.6
		C21.9,4.2,21.9,4.1,21.8,4z"/>
</g>
</svg>
