<?xml version="1.0" encoding="utf-8"?>
<!-- Generator: Adobe Illustrator 23.0.5, SVG Export Plug-In . SVG Version: 6.00 Build 0)  -->
<svg version="1.1" id="Layer_1" xmlns="http://www.w3.org/2000/svg" xmlns:xlink="http://www.w3.org/1999/xlink" x="0px" y="0px"
	 viewBox="0 0 25 25" style="enable-background:new 0 0 25 25;" xml:space="preserve">
<style type="text/css">
	.st0{fill:#010101;stroke:#000000;stroke-width:0.35;stroke-miterlimit:10;}
	.st1{fill:#020202;stroke:#000000;stroke-width:0.35;stroke-miterlimit:10;}
</style>
<g>
	<path class="st0" d="M6.2,3.9c0,0-0.4-0.6,0.3-0.9l1.7,1.5c0,0,1.9,1.9,0.3,4L7.7,7.8c0,0,1.3-1.2-0.2-2.7L6.2,3.9z"/>
	<path class="st0" d="M3.9,6.1c0,0-0.6-0.4-0.9,0.3l1.5,1.7c0,0,1.8,2,4,0.4L7.8,7.8c0,0-1.2,1.3-2.7-0.2L3.9,6.1z"/>
	<path class="st1" d="M6.5,3c0,0,2.5-0.9,4.8,1.6c0,0,1.7,1.6,0.7,4.8l9.6,9.5c0,0,1.2,1.4,0,2.7c0,0-1.3,1.5-2.9-0.2L9.4,12
		c0,0-2.2,1.3-4.7-0.6c0,0-2.4-1.5-1.7-5.1l0.9,1.1L3.8,7.6c0,0-0.2,1.5,1.3,2.9c0,0,1.4,1.6,4.5,0.6l9.8,9.6c0,0,0.9,1.1,1.6,0.3
		c0,0,0.9-0.6-0.2-1.6L11,9.7c0,0,1.3-2.8-0.4-4.5c0,0-1-1.4-3-1.5L7.4,3.8L6.5,3z"/>
</g>
</svg>
