<?xml version="1.0" encoding="utf-8"?>
<!-- Generator: Adobe Illustrator 23.0.5, SVG Export Plug-In . SVG Version: 6.00 Build 0)  -->
<svg version="1.1" id="Layer_1" xmlns="http://www.w3.org/2000/svg" xmlns:xlink="http://www.w3.org/1999/xlink" x="0px" y="0px"
	 viewBox="0 0 11826 4338" style="enable-background:new 0 0 11826 4338;" xml:space="preserve">
<style type="text/css">
	.st0{fill:#008DFF;}
	.st1{fill:#1E42C1;}
	.st2{fill:url(#SVGID_1_);}
	.st3{fill:url(#SVGID_2_);}
	.st4{fill:url(#SVGID_3_);}
	.st5{fill:url(#SVGID_4_);}
	.st6{fill:url(#SVGID_5_);}
	.st7{fill:url(#SVGID_6_);}
	.st8{fill:#0024C1;}
	.st9{fill:#FFFFFF;}
</style>
<path class="st0" d="M5616.8,1726.6c-0.1-0.3-0.2-0.7-0.2-1C5616.6,1726,5616.7,1726.3,5616.8,1726.6z"/>
<path class="st1" d="M5616.9,1726.9c0-0.1,0-0.2-0.1-0.2C5616.8,1726.7,5616.9,1726.8,5616.9,1726.9z"/>
<g>
	<g>
		
			<linearGradient id="SVGID_1_" gradientUnits="userSpaceOnUse" x1="3134.2368" y1="1218.7607" x2="3134.2368" y2="3205.0161" gradientTransform="matrix(1 0 0 -1 0 4336.9902)">
			<stop  offset="0" style="stop-color:#008DFF"/>
			<stop  offset="0.1303" style="stop-color:#0288FB"/>
			<stop  offset="0.2763" style="stop-color:#077BF0"/>
			<stop  offset="0.4299" style="stop-color:#1064DE"/>
			<stop  offset="0.5878" style="stop-color:#1D45C4"/>
			<stop  offset="0.6028" style="stop-color:#1E42C1"/>
			<stop  offset="1" style="stop-color:#0024C1"/>
			<stop  offset="1" style="stop-color:#000000"/>
		</linearGradient>
		<path class="st2" d="M3134.2,3101.1c-186,0-344.2-67.3-475-202.2s-196-299.8-196-495.4c0-195.6,65.2-360.8,196-495.8
			s289-202.2,475-202.2c187.7,0,346.3,67.3,476.3,202.2s194.7,299.8,194.7,495.8c0,195.6-64.8,360.8-194.7,495.4
			C3480.5,3033.9,3321.9,3101.1,3134.2,3101.1z M3134.2,2678.4c73.5,0,134.5-25.3,182.3-76.8c47.8-51.1,71.4-117.1,71.4-198.1
			s-23.7-147-71.4-198.1s-108.4-76.8-182.3-76.8c-71.8,0-132,25.7-179.8,76.8s-71.4,117.1-71.4,198.1s23.7,147,71.4,198.1
			S3062.4,2678.4,3134.2,2678.4z"/>
		
			<linearGradient id="SVGID_2_" gradientUnits="userSpaceOnUse" x1="4619.1279" y1="1218.7607" x2="4619.1279" y2="3205.0161" gradientTransform="matrix(1 0 0 -1 0 4336.9902)">
			<stop  offset="0" style="stop-color:#008DFF"/>
			<stop  offset="0.1303" style="stop-color:#0288FB"/>
			<stop  offset="0.2763" style="stop-color:#077BF0"/>
			<stop  offset="0.4299" style="stop-color:#1064DE"/>
			<stop  offset="0.5878" style="stop-color:#1D45C4"/>
			<stop  offset="0.6028" style="stop-color:#1E42C1"/>
			<stop  offset="1" style="stop-color:#0024C1"/>
			<stop  offset="1" style="stop-color:#000000"/>
		</linearGradient>
		<path class="st3" d="M4888.2,1742.5h411.9V3011c0,105.9-18.7,199.7-56.5,281.5c-37.8,81.8-88.4,147-152,195.6
			c-63.5,48.6-133.7,84.7-209.7,108.4c-76.4,23.7-157,35.7-242.5,35.7c-139.1,0-262.8-27.4-372.1-81.8
			c-108.8-54.8-191-135-246.2-240.4l346.7-211.4c60.2,100.5,149.1,150.7,266.2,150.7c75.6,0,136.6-20.3,183.5-60.6
			c46.9-40.7,70.2-99.7,70.2-176.9v-127.1c-85.5,109.2-202.6,164-351.7,164c-172.7,0-315.2-65.2-428.5-195.6
			c-112.9-130.4-169.4-289-169.4-475.9s56.5-345.5,169.4-475.9c112.9-130.4,255.8-195.6,428.5-195.6c149.1,0,266.2,54.8,351.7,164
			v-127.5H4888.2z M4429.8,2573.8c49.4,51.9,113.4,78.1,192.3,78.1c78.9,0,142.8-26.2,192.3-78.1s74.3-117.5,74.3-196.8
			c0-79.3-24.9-144.9-74.3-196.8c-49.4-51.9-113.4-78.1-192.3-78.1c-78.9,0-142.8,26.2-192.3,78.1c-49.4,51.9-74.3,117.5-74.3,196.8
			C4355.5,2456.3,4380.4,2521.9,4429.8,2573.8z"/>
		
			<linearGradient id="SVGID_3_" gradientUnits="userSpaceOnUse" x1="6160.9067" y1="1218.7607" x2="6160.9067" y2="3205.0161" gradientTransform="matrix(1 0 0 -1 0 4336.9902)">
			<stop  offset="0" style="stop-color:#008DFF"/>
			<stop  offset="0.1303" style="stop-color:#0288FB"/>
			<stop  offset="0.2763" style="stop-color:#077BF0"/>
			<stop  offset="0.4299" style="stop-color:#1064DE"/>
			<stop  offset="0.5878" style="stop-color:#1D45C4"/>
			<stop  offset="0.6028" style="stop-color:#1E42C1"/>
			<stop  offset="1" style="stop-color:#0024C1"/>
			<stop  offset="1" style="stop-color:#000000"/>
		</linearGradient>
		<path class="st4" d="M6425.8,1742.5h417.3v1321.7h-417.3v-121.7c-85.5,105.9-204.3,158.6-356.7,158.6
			c-167.3,0-307.7-66.4-421.1-199.7c-112.9-132.9-169.4-299-169.4-498.3c0-199.3,56.5-365,169.4-498.3
			c112.9-132.9,253.3-199.7,421.1-199.7c152.4,0,271.6,52.7,356.7,158.6V1742.5z M5971.1,2612.4c48.6,52.7,112.1,79.3,191,79.3
			c78.9,0,142.4-26.6,191-79.3c48.6-52.7,73.1-122.5,73.1-208.9s-24.5-156.1-73.1-208.9c-48.6-52.7-112.1-79.3-191-79.3
			c-78.9,0-142.4,26.6-191,79.3c-48.6,52.7-73.1,122.5-73.1,208.9C5898.5,2489.9,5922.6,2559.2,5971.1,2612.4z"/>
		
			<linearGradient id="SVGID_4_" gradientUnits="userSpaceOnUse" x1="7704.7622" y1="1218.7607" x2="7704.7622" y2="3205.0161" gradientTransform="matrix(1 0 0 -1 0 4336.9902)">
			<stop  offset="0" style="stop-color:#008DFF"/>
			<stop  offset="0.1303" style="stop-color:#0288FB"/>
			<stop  offset="0.2763" style="stop-color:#077BF0"/>
			<stop  offset="0.4299" style="stop-color:#1064DE"/>
			<stop  offset="0.5878" style="stop-color:#1D45C4"/>
			<stop  offset="0.6028" style="stop-color:#1E42C1"/>
			<stop  offset="1" style="stop-color:#0024C1"/>
			<stop  offset="1" style="stop-color:#000000"/>
		</linearGradient>
		<path class="st5" d="M8325.5,3064.2H7858l-356.7-563.1v563.1H7084V1213.9h417.3v1080.9l324.3-552.3h482.5l-422.3,661.1
			L8325.5,3064.2z"/>
		
			<linearGradient id="SVGID_5_" gradientUnits="userSpaceOnUse" x1="8987.8486" y1="1218.7607" x2="8987.8486" y2="3205.0161" gradientTransform="matrix(1 0 0 -1 0 4336.9902)">
			<stop  offset="0" style="stop-color:#008DFF"/>
			<stop  offset="0.1303" style="stop-color:#0288FB"/>
			<stop  offset="0.2763" style="stop-color:#077BF0"/>
			<stop  offset="0.4299" style="stop-color:#1064DE"/>
			<stop  offset="0.5878" style="stop-color:#1D45C4"/>
			<stop  offset="0.6028" style="stop-color:#1E42C1"/>
			<stop  offset="1" style="stop-color:#0024C1"/>
			<stop  offset="1" style="stop-color:#000000"/>
		</linearGradient>
		<path class="st6" d="M9252.8,1742.5h417.3v1321.7h-417.3v-121.7c-85.5,105.9-204.3,158.6-356.7,158.6
			c-167.3,0-307.7-66.4-421.1-199.7c-112.9-132.9-169.4-299-169.4-498.3c0-199.3,56.5-365,169.4-498.3
			c112.9-132.9,253.3-199.7,421.1-199.7c152.4,0,271.6,52.7,356.7,158.6V1742.5z M8798.1,2612.4c48.6,52.7,112.1,79.3,191,79.3
			s142.4-26.6,191-79.3c48.6-52.7,73.1-122.5,73.1-208.9s-24.5-156.1-73.1-208.9s-112.1-79.3-191-79.3s-142.4,26.6-191,79.3
			c-48.6,52.7-73.1,122.5-73.1,208.9S8749.5,2559.2,8798.1,2612.4z"/>
		
			<linearGradient id="SVGID_6_" gradientUnits="userSpaceOnUse" x1="10868.2529" y1="1218.7607" x2="10868.2529" y2="3205.0161" gradientTransform="matrix(1 0 0 -1 0 4336.9902)">
			<stop  offset="0" style="stop-color:#008DFF"/>
			<stop  offset="0.1303" style="stop-color:#0288FB"/>
			<stop  offset="0.2763" style="stop-color:#077BF0"/>
			<stop  offset="0.4299" style="stop-color:#1064DE"/>
			<stop  offset="0.5878" style="stop-color:#1D45C4"/>
			<stop  offset="0.6028" style="stop-color:#1E42C1"/>
			<stop  offset="1" style="stop-color:#0024C1"/>
			<stop  offset="1" style="stop-color:#000000"/>
		</linearGradient>
		<path class="st7" d="M11353.5,1705.5c145.7,0,260.8,49,345.5,146.6c84.7,98,127.1,232.1,127.1,403.2v808.9h-419.8v-758.6
			c0-123.3-51.9-185.2-155.7-185.2c-56.9,0-100.1,19.9-129.6,59.4c-29.5,39.4-44,93.8-44,162.4v721.7h-417.3v-758.2
			c0-123.3-52.7-185.2-158.2-185.2c-56.9,0-100.1,19.9-129.6,59.4c-29.5,39.4-44,93.8-44,162.4v721.7h-417.3V1742.5h417.3v124.2
			c76.8-107.5,190.2-161.1,339.2-161.1c144.1,0,251.2,56.5,321.8,169C11076.5,1762,11197.7,1705.5,11353.5,1705.5z"/>
	</g>
	<g>
		<path class="st8" d="M245.4,2815c201,212.6,528.2,213.8,730.4,2.1l379.1-396.6l-370.8-387.8c-206.8-216.3-541.5-215.1-747,2.5l0,0
			c-149.9,158.2-189.3,387.8-120.4,584.2c24.9,64.8,62.3,125.4,112.1,178.1L245.4,2815z"/>
		<path class="st1" d="M2252.7,15.9c-158.6,0-287.8,135.8-287.8,302.7s129.1,302.7,287.8,302.7c158.6,0,287.8-135.8,287.8-302.7
			S2411.3,15.9,2252.7,15.9z M2252.7,567.4c-130.4,0-236.7-111.7-236.7-248.7s106.3-248.7,236.7-248.7
			c130.4,0,236.7,111.7,236.7,248.7S2383.1,567.4,2252.7,567.4z"/>
		<path class="st1" d="M2312.9,322.4c8.7-5,16.2-11.2,22-18.3c6.2-7.1,10.8-15.4,14.1-24.1c3.3-8.7,5-18.3,5-27.8
			c0-9.1-1.2-18.3-3.7-27.8c-2.9-10.4-7.9-19.5-14.5-27.8c-7.1-8.3-16.2-14.9-27.8-19.9c-11.6-5-25.7-7.5-42.8-7.5h-97.6v280.3h55.6
			V335.6h19.1l61.9,112.9h68.1l-71.4-120.8C2305,326.5,2309.2,324.9,2312.9,322.4z M2293.4,267.6c-2.1,3.7-4.6,6.2-7.5,7.9
			c-3.7,2.1-8.3,3.7-13.3,4.6c-5.8,0.8-11.6,1.7-17.4,1.7h-32v-59h32c5.8,0,11.6,0.4,17.4,1.7c5,0.8,9.6,2.5,13.3,4.6
			c3.3,1.7,5.8,4.6,7.5,8.3c2.1,3.7,2.9,8.7,2.9,15.4S2295.5,263.8,2293.4,267.6z"/>
		<ellipse class="st9" cx="536.1" cy="2405.6" rx="203.5" ry="213.8"/>
		<path class="st1" d="M237.5,2035.2L237.5,2035.2c205.5-217.6,540.2-218.4,747-2.5l370.8,387.8l1063.8-1112.4
			c17-17.9,17.4-47.3,0-65.6L1736.5,520c-17-18.3-44.8-18.3-62.3,0l-1443,1509.4c-152.4,159-190.2,393.2-114.2,590.1
			C47.8,2422.6,87.6,2193.4,237.5,2035.2z"/>
		<path class="st0" d="M2418.8,3533L1355.4,2420.6l-379.5,396.6c-202.2,211.4-529,210.5-730.4-2.1l-16.6-17.4
			c-49.8-52.7-87.2-113.4-112.1-178.1c25.7,73.5,66.4,142.4,122.5,201.4l1434.6,1500.3c17,17.9,44.8,17.9,62.3,0l682.7-722.5
			C2436.2,3580.3,2436.2,3550.8,2418.8,3533z"/>
		<path class="st0" d="M78.9,3221.1v1067.6c0,25.3,19.5,45.7,43.2,45.7h758.6c24.1,0,43.2-20.3,43.2-45.7v-157L78.9,3221.1z"/>
		<path class="st1" d="M923.9,725.1V552.4c0-25.3-19.5-45.7-43.2-45.7H122.1c-24.1,0-43.2,20.3-43.2,45.7v1083.8L923.9,725.1z"/>
	</g>
</g>
</svg>
