<?xml version="1.0" encoding="utf-8"?>
<!-- Generator: Adobe Illustrator 23.0.5, SVG Export Plug-In . SVG Version: 6.00 Build 0)  -->
<svg version="1.1" id="Layer_1" xmlns="http://www.w3.org/2000/svg" xmlns:xlink="http://www.w3.org/1999/xlink" x="0px" y="0px"
	 viewBox="0 0 25 25" style="enable-background:new 0 0 25 25;" xml:space="preserve">
<style type="text/css">
	.st0{fill:#010101;}
	.st1{fill:#010101;stroke:#000000;stroke-width:0.5;stroke-miterlimit:10;}
</style>
<g>
	<g>
		<path class="st0" d="M13.6,3.4H11c-0.1,0-0.3,0.1-0.3,0.2c0,0.1,0.1,0.2,0.3,0.2h2.6c0.1,0,0.3-0.1,0.3-0.2
			C13.8,3.5,13.7,3.4,13.6,3.4z"/>
	</g>
</g>
<g>
	<g>
		<path class="st0" d="M16.4,3.3h-0.2c-0.1,0-0.2,0.1-0.2,0.2c0,0.1,0.1,0.2,0.2,0.2h0.2c0.1,0,0.2-0.1,0.2-0.2
			C16.6,3.4,16.5,3.3,16.4,3.3z"/>
	</g>
</g>
<g>
	<g>
		<path class="st0" d="M12.4,20.3h-0.6c-0.4,0-0.7,0.3-0.7,0.7V21c0,0.4,0.3,0.7,0.7,0.7h0.6c0.4,0,0.7-0.3,0.7-0.7v-0.1
			C13.1,20.6,12.8,20.3,12.4,20.3z M12.6,21c0,0.1-0.1,0.2-0.2,0.2h-0.6c-0.1,0-0.2-0.1-0.2-0.2v-0.1c0-0.1,0.1-0.2,0.2-0.2h0.6
			c0.1,0,0.2,0.1,0.2,0.2V21z"/>
	</g>
</g>
<g>
	<g>
		<path class="st1" d="M16.9,1.9H7.4c-0.7,0-1.3,0.6-1.3,1.3v18.7c0,0.7,0.6,1.3,1.3,1.3h9.5c0.7,0,1.3-0.6,1.3-1.3V3.2
			C18.2,2.5,17.6,1.9,16.9,1.9z M17.4,21.9c0,0.3-0.3,0.6-0.6,0.6H7.4c-0.3,0-0.6-0.3-0.6-0.6V3.2c0-0.3,0.3-0.6,0.6-0.6h9.5
			c0.3,0,0.6,0.3,0.6,0.6L17.4,21.9L17.4,21.9z"/>
	</g>
</g>
<g>
	<g>
		<path class="st0" d="M17.8,4.4H6.4c-0.2,0-0.4,0.2-0.4,0.4v14.8c0,0.2,0.2,0.4,0.4,0.4h11.4c0.2,0,0.4-0.2,0.4-0.4V4.8
			C18.2,4.6,18,4.4,17.8,4.4z M17.4,19.2H6.8V5.1h10.6V19.2z"/>
	</g>
</g>
</svg>
