<?xml version="1.0" encoding="utf-8"?>
<!-- Generator: Adobe Illustrator 23.0.5, SVG Export Plug-In . SVG Version: 6.00 Build 0)  -->
<svg version="1.1" id="Layer_1" xmlns="http://www.w3.org/2000/svg" xmlns:xlink="http://www.w3.org/1999/xlink" x="0px" y="0px"
	 viewBox="0 0 25 25" style="enable-background:new 0 0 25 25;" xml:space="preserve">
<style type="text/css">
	.st0{fill:#010101;stroke:#000000;stroke-width:0.5;stroke-miterlimit:10;}
</style>
<g>
	<g>
		<g>
			<path class="st0" d="M17.8,14c-1.5-1.8-3.4-2.8-5.3-2.8s-3.8,1-5.3,2.8C5.8,15.7,5,17.7,5,19.5c0,0.9,0.3,1.5,0.8,2
				c0.5,0.4,1.2,0.6,2,0.6c0.8,0,1.7-0.2,2.6-0.3c0.8-0.1,1.5-0.3,2.1-0.3c0.5,0,1.2,0.1,1.9,0.3c1.7,0.3,3.7,0.7,4.8-0.3
				c0.5-0.4,0.8-1.1,0.8-2C20,17.7,19.2,15.7,17.8,14z M18.4,20.5c-0.6,0.5-2.3,0.2-3.7,0c-0.8-0.1-1.5-0.3-2.2-0.3
				c-0.7,0-1.5,0.1-2.3,0.3c-1.3,0.2-2.9,0.5-3.5,0c-0.1-0.1-0.3-0.3-0.3-1c0-1.5,0.7-3.3,1.9-4.7c1.2-1.5,2.8-2.3,4.3-2.3
				s3.1,0.8,4.3,2.3c1.1,1.4,1.9,3.2,1.9,4.7C18.7,20.2,18.4,20.4,18.4,20.5z"/>
		</g>
	</g>
	<g>
		<g>
			<path class="st0" d="M18,4.2c-0.5-0.8-1.3-1.3-2.2-1.3c-0.8,0-1.6,0.5-2.2,1.3c-0.5,0.7-0.8,1.7-0.8,2.7s0.3,2,0.8,2.7
				c0.5,0.8,1.3,1.3,2.2,1.3c0.8,0,1.6-0.5,2.2-1.3c0.5-0.7,0.8-1.7,0.8-2.7S18.5,4.9,18,4.2z M16.9,9c-0.2,0.3-0.6,0.7-1.1,0.7
				S14.9,9.2,14.8,9c-0.4-0.5-0.6-1.3-0.6-2c0-0.8,0.2-1.5,0.6-2c0.2-0.3,0.6-0.7,1.1-0.7s0.9,0.4,1.1,0.7c0.4,0.5,0.6,1.3,0.6,2
				C17.5,7.7,17.3,8.4,16.9,9z"/>
		</g>
	</g>
	<g>
		<g>
			<path class="st0" d="M11.3,4.2C10.8,3.4,10,2.9,9.2,2.9S7.6,3.4,7,4.2C6.5,4.9,6.2,5.9,6.2,6.9s0.3,2,0.8,2.7
				C7.6,10.5,8.3,11,9.2,11s1.6-0.5,2.2-1.3c0.5-0.7,0.8-1.7,0.8-2.7C12.1,5.9,11.8,4.9,11.3,4.2z M10.2,9c-0.2,0.3-0.6,0.7-1.1,0.7
				C8.6,9.7,8.3,9.2,8.1,9c-0.4-0.5-0.6-1.3-0.6-2c0-0.8,0.2-1.5,0.6-2c0.2-0.3,0.6-0.7,1.1-0.7c0.5,0,0.9,0.4,1.1,0.7
				c0.4,0.5,0.6,1.3,0.6,2C10.8,7.7,10.6,8.4,10.2,9z"/>
		</g>
	</g>
	<g>
		<g>
			<path class="st0" d="M23.5,10.5c-0.2-0.8-0.7-1.3-1.3-1.5c-0.5-0.2-1.1-0.2-1.6,0.1c-0.7,0.3-1.4,1.1-1.7,2
				c-0.3,0.7-0.3,1.5-0.1,2.2c0.2,0.8,0.7,1.3,1.3,1.5c0.2,0.1,0.5,0.1,0.7,0.1c0.3,0,0.6-0.1,0.9-0.2c0.7-0.3,1.4-1.1,1.7-2v0
				C23.7,12,23.7,11.2,23.5,10.5z M22.2,12.3c-0.2,0.6-0.6,1-1,1.2c-0.2,0.1-0.4,0.1-0.6,0.1c-0.6-0.2-0.8-1.2-0.5-2.1
				c0.2-0.6,0.6-1,1-1.2c0.1,0,0.2-0.1,0.4-0.1c0.1,0,0.2,0,0.2,0C22.3,10.4,22.5,11.4,22.2,12.3z"/>
		</g>
	</g>
	<g>
		<g>
			<path class="st0" d="M6.1,11c-0.3-0.9-0.9-1.6-1.7-2C3.9,8.8,3.3,8.8,2.8,9c-0.6,0.2-1.1,0.8-1.3,1.5c-0.2,0.7-0.2,1.5,0.1,2.2v0
				c0.3,0.9,0.9,1.6,1.7,2c0.3,0.1,0.6,0.2,0.9,0.2c0.2,0,0.5,0,0.7-0.1C5.5,14.5,6,14,6.2,13.2C6.4,12.6,6.4,11.8,6.1,11z
				 M4.4,13.6c-0.2,0.1-0.5,0-0.6-0.1c-0.4-0.2-0.8-0.7-1-1.2v0c-0.3-0.9-0.1-1.9,0.5-2.1c0.2-0.1,0.5,0,0.6,0.1
				c0.4,0.2,0.8,0.7,1,1.2C5.2,12.4,5,13.3,4.4,13.6z"/>
		</g>
	</g>
</g>
</svg>
