<?xml version="1.0" encoding="utf-8"?>
<!-- Generator: Adobe Illustrator 23.0.5, SVG Export Plug-In . SVG Version: 6.00 Build 0)  -->
<svg version="1.1" id="Layer_1" xmlns="http://www.w3.org/2000/svg" xmlns:xlink="http://www.w3.org/1999/xlink" x="0px" y="0px"
	 viewBox="0 0 25 25" style="enable-background:new 0 0 25 25;" xml:space="preserve">
<style type="text/css">
	.st0{fill:#010101;stroke:#000000;stroke-width:0.25;stroke-miterlimit:10;}
</style>
<g>
	<g>
		<g>
			<path class="st0" d="M11.7,3.8h1.7c0.2,0,0.3-0.1,0.3-0.3c0-0.2-0.1-0.3-0.3-0.3h-1.7c-0.2,0-0.3,0.1-0.3,0.3
				C11.3,3.7,11.5,3.8,11.7,3.8z"/>
			<path class="st0" d="M22.4,9.9l-1.1-4.7c0,0-0.3-1.1-1.4-1.6c-0.8-0.3-3.3-1.3-3.9-1.5c-0.1,0-0.1-0.1-0.2-0.1h0H9.3c0,0,0,0,0,0
				c0,0,0,0,0,0c0,0,0,0,0,0c0,0,0,0,0,0c0,0,0,0,0,0c0,0,0,0,0,0c0,0,0,0,0,0c-0.1,0-3.2,1.2-4,1.6c-1,0.4-1.3,1.5-1.4,1.6
				c0,0,0,0,0,0c0,0,0,0,0,0c0,0,0,0,0,0L3,8.6c0,0,0,0,0,0L2.6,9.9c0,0.2,0,0.3,0.2,0.4l3.3,1.3v9.7v1.3c0,0.2,0.1,0.3,0.3,0.3
				h12.1c0.2,0,0.3-0.1,0.3-0.3v-1.3V15c0-0.2-0.1-0.3-0.3-0.3s-0.3,0.1-0.3,0.3v6h-8.1c-0.2,0-0.3,0.1-0.3,0.3
				c0,0.2,0.1,0.3,0.3,0.3h8.1v0.7H6.8v-0.7H9c0.2,0,0.3-0.1,0.3-0.3C9.3,21.1,9.2,21,9,21H6.8v-9.6V9.9V7.4c0-0.1,0-0.1,0-0.2
				L5,4.4c0.1-0.1,0.2-0.2,0.4-0.2C6.1,3.9,8.1,3.2,9,2.8c0.2,2,1.7,3.5,3.5,3.5c1.8,0,3.3-1.6,3.5-3.5c0.9,0.3,2.9,1.1,3.5,1.4
				c0.1,0.1,0.3,0.1,0.4,0.2l-1.7,2.8c0,0.1,0,0.1,0,0.2v2.6v1.4v2.5c0,0.2,0.1,0.3,0.3,0.3c0.2,0,0.3-0.1,0.3-0.3v-2.3l3.3-1.3
				C22.3,10.2,22.4,10.1,22.4,9.9z M6.1,10.9L3.4,9.8l0.2-0.7l2.6,1.1L6.1,10.9L6.1,10.9z M6.1,7.5v2l-2.4-1l0.7-3.1
				c0,0,0-0.2,0.2-0.4L6.1,7.5z M12.5,5.7c-1.3,0-2.7-1.2-2.9-3h5.7C15.2,4.5,13.8,5.7,12.5,5.7z M18.9,7.5L20.4,5
				c0.1,0.1,0.1,0.3,0.1,0.3c0,0,0,0,0,0c0,0,0,0,0,0c0,0,0,0,0,0c0,0,0,0,0,0c0,0,0,0,0,0c0,0,0,0,0,0c0,0,0,0,0,0c0,0,0,0,0,0
				c0,0,0,0,0,0c0,0,0,0,0,0l0.7,3.1l-2.4,1L18.9,7.5L18.9,7.5z M18.9,10.9v-0.7l2.6-1.1l0.2,0.7L18.9,10.9z"/>
		</g>
	</g>
</g>
</svg>
