<svg xmlns="http://www.w3.org/2000/svg" viewBox="0 0 34.28 30.05"><defs><style>.cls-1{fill:#444;}</style></defs><title>small_business</title><g id="Layer_2" data-name="Layer 2"><g id="Layer_1-2" data-name="Layer 1"><path class="cls-1" d="M33.53,30H.75a.7.7,0,1,1,0-1.4H33.53a.7.7,0,1,1,0,1.4Z"/><path class="cls-1" d="M4.2,30a.7.7,0,0,1-.7-.7V16.69a.7.7,0,1,1,1.4,0V29.35A.7.7,0,0,1,4.2,30Z"/><path class="cls-1" d="M12.28,30a.7.7,0,0,1-.7-.7V16.69a.7.7,0,1,1,1.4,0V29.35A.7.7,0,0,1,12.28,30Z"/><path class="cls-1" d="M30.09,30a.7.7,0,0,1-.7-.7V16.69a.7.7,0,1,1,1.4,0V29.35A.7.7,0,0,1,30.09,30Z"/><path class="cls-1" d="M29.92,14.26a4.37,4.37,0,0,1-3.2-1.39,4.36,4.36,0,0,1-6.39,0,4.36,4.36,0,0,1-6.39,0,4.36,4.36,0,0,1-6.39,0A4.36,4.36,0,0,1,0,9.9a4.41,4.41,0,0,1,.07-.77A.78.78,0,0,1,.11,9L3.78.42A.7.7,0,0,1,4.43,0H29.86a.7.7,0,0,1,.64.42L34.17,9a.67.67,0,0,1,0,.15,4.36,4.36,0,0,1-4.29,5.13ZM26.73,11a.7.7,0,0,1,.61.36,3,3,0,0,0,5.51-1.89l-3.45-8H4.89l-3.46,8a3.1,3.1,0,0,0,0,.45,3,3,0,0,0,5.54,1.44.73.73,0,0,1,1.22,0,3,3,0,0,0,5.17,0,.73.73,0,0,1,1.22,0,3,3,0,0,0,5.17,0,.73.73,0,0,1,1.22,0,3,3,0,0,0,5.17,0A.7.7,0,0,1,26.73,11Z"/><path class="cls-1" d="M7.5,12.1H7.39a.7.7,0,0,1-.58-.8L8.44,1a.7.7,0,0,1,1.38.22L8.19,11.5A.7.7,0,0,1,7.5,12.1Z"/><path class="cls-1" d="M13.87,12.1h0a.7.7,0,0,1-.66-.74l.54-10.25a.71.71,0,0,1,.74-.66.7.7,0,0,1,.66.74l-.54,10.25A.7.7,0,0,1,13.87,12.1Z"/><path class="cls-1" d="M20.24,12.1a.7.7,0,0,1-.7-.66L19,1.18a.7.7,0,0,1,.66-.74.72.72,0,0,1,.74.66l.54,10.25a.7.7,0,0,1-.66.74Z"/><path class="cls-1" d="M26.6,12.1a.7.7,0,0,1-.69-.59L24.29,1.25A.7.7,0,0,1,25.67,1L27.3,11.29a.7.7,0,0,1-.58.8Z"/><path class="cls-1" d="M9.59,23.88a.7.7,0,0,1-.7-.7V20.79a.7.7,0,0,1,1.4,0v2.39A.7.7,0,0,1,9.59,23.88Z"/><path class="cls-1" d="M19,25.58a.7.7,0,0,1-.5-1.19l7.39-7.5a.7.7,0,1,1,1,1l-7.39,7.5A.69.69,0,0,1,19,25.58Z"/><path class="cls-1" d="M21.57,27.65a.7.7,0,0,1-.5-1.19l5-5.07a.7.7,0,1,1,1,1l-5,5.07A.69.69,0,0,1,21.57,27.65Z"/></g></g></svg>