<?xml version="1.0" encoding="utf-8"?>
<!-- Generator: Adobe Illustrator 19.2.1, SVG Export Plug-In . SVG Version: 6.00 Build 0)  -->
<svg xmlns="http://www.w3.org/2000/svg" xmlns:xlink="http://www.w3.org/1999/xlink" version="1.1" id="Layer" x="0px" y="0px" width="512" height="512" viewBox="0 0 64 64" enable-background="new 0 0 64 64" xml:space="preserve">
<circle fill="#CCE4FF" cx="32" cy="32" r="16"/>
<path fill="#007AFF" d="M32,9C19.318,9,9,19.317,9,32s10.318,23,23,23s23-10.317,23-23S44.682,9,32,9z M32,53  c-11.58,0-21-9.421-21-21s9.42-21,21-21s21,9.421,21,21S43.58,53,32,53z"/>
<path fill="#007AFF" d="M32,15c-9.374,0-17,7.626-17,17s7.626,17,17,17s17-7.626,17-17S41.374,15,32,15z M32,47  c-8.271,0-15-6.729-15-15s6.729-15,15-15s15,6.729,15,15S40.271,47,32,47z"/>
<path fill="#007AFF" d="M37.168,25.445l-7.323,10.985l-3.138-3.138c-0.391-0.391-1.023-0.391-1.414,0s-0.391,1.023,0,1.414l4,4  C29.481,38.896,29.736,39,30,39c0.033,0,0.065-0.002,0.099-0.005c0.298-0.029,0.567-0.191,0.733-0.44l8-12  c0.306-0.46,0.182-1.08-0.277-1.387C38.095,24.862,37.474,24.985,37.168,25.445z"/>
</svg>
